<?xml version="1.0" encoding="UTF-8" standalone="no"?><!DOCTYPE svg PUBLIC "-//W3C//DTD SVG 1.1//EN" "http://www.w3.org/Graphics/SVG/1.1/DTD/svg11.dtd"><svg width="100%" height="100%" viewBox="0 0 377 377" version="1.1" xmlns="http://www.w3.org/2000/svg" xmlns:xlink="http://www.w3.org/1999/xlink" xml:space="preserve" xmlns:serif="http://www.serif.com/" style="fill-rule:evenodd;clip-rule:evenodd;stroke-linejoin:round;stroke-miterlimit:2;"><g><path d="M347.468,29.27c-39.027,-39.027 -102.395,-39.027 -141.422,0l-176.776,176.776c-39.027,39.027 -39.027,102.395 0,141.422c39.026,39.026 102.395,39.026 141.421,0l176.777,-176.777c39.026,-39.026 39.026,-102.395 0,-141.421Z" style="fill:#50e2c3;"/><path d="M347.468,347.468c39.026,-39.027 39.026,-102.395 0,-141.422l-176.777,-176.776c-39.026,-39.027 -102.395,-39.027 -141.421,0c-39.027,39.026 -39.027,102.395 0,141.421l176.776,176.777c39.027,39.026 102.395,39.026 141.422,0Z" style="fill:#50e2c3;fill-opacity:0.62;"/></g></svg>