<svg xmlns="http://www.w3.org/2000/svg" viewBox="0 0 512 512">
  <path fill="#4fe2c2" d="M437 75C388.7 26.6 324.4 0 256 0S123.3 26.6 75 75C26.6 123.3 0 187.6 0 256s26.6 132.7 75 181c48.3 48.4 112.6 75 181 75s132.7-26.6 181-75c48.4-48.3 75-112.6 75-181s-26.6-132.7-75-181zM256 495.8C123.8 495.8 16.2 388.2 16.2 256S123.8 16.2 256 16.2 495.8 123.8 495.8 256 388.2 495.8 256 495.8z"/>
  <path fill="#4fe2c2" d="M418 236.3L161.2 108c-6.9-3.4-14.9-3-21.4 1-6.6 4-10.5 11-10.5 18.7v256.8a21.9 21.9 0 0022 22 22 22 0 009.9-2.3L418 275.7A21.9 21.9 0 00430 256c0-8.4-4.6-16-12.1-19.7zm-272.5-63.7L194 199a8 8 0 009.5-1.4h.1a8 8 0 00-1.8-12.8l-56.2-30.6v-26.6c0-3 2-4.4 2.8-5a5.7 5.7 0 015.7-.3L357 224l-41.8 22.8-77.7-42.4a8 8 0 00-9.5 1.4h-.1a8 8 0 001.8 12.8l68.6 37.4-152.9 83.4V172.6zm8.4 217a5.7 5.7 0 01-5.6-.2c-.9-.6-2.8-2-2.8-5v-26.6l169.8-92.6L357 288 154 389.6zm256.9-128.4l-36 18-42.6-23.2 42.5-23.2 36 18a5.7 5.7 0 013.3 5.2c0 1-.3 3.8-3.2 5.2z"/>
</svg>